<?xml version="1.0" encoding="UTF-8" standalone="no"?>
<!-- Created with Inkscape (http://www.inkscape.org/) -->

<svg
   version="1.0"
   width="1920"
   height="1200"
   id="svg2424"
   sodipodi:docname="FondArch.svg"
   inkscape:version="1.3.2 (091e20e, 2023-11-25, custom)"
   inkscape:export-filename="FondArch.png"
   inkscape:export-xdpi="96"
   inkscape:export-ydpi="96"
   xmlns:inkscape="http://www.inkscape.org/namespaces/inkscape"
   xmlns:sodipodi="http://sodipodi.sourceforge.net/DTD/sodipodi-0.dtd"
   xmlns:xlink="http://www.w3.org/1999/xlink"
   xmlns="http://www.w3.org/2000/svg"
   xmlns:svg="http://www.w3.org/2000/svg">
  <sodipodi:namedview
     id="namedview1"
     pagecolor="#1e2030"
     bordercolor="#000000"
     borderopacity="0.25"
     inkscape:showpageshadow="2"
     inkscape:pageopacity="0.0"
     inkscape:pagecheckerboard="0"
     inkscape:deskcolor="#d1d1d1"
     inkscape:zoom="0.53666667"
     inkscape:cx="938.19876"
     inkscape:cy="597.20497"
     inkscape:window-width="1920"
     inkscape:window-height="1009"
     inkscape:window-x="-8"
     inkscape:window-y="-8"
     inkscape:window-maximized="1"
     inkscape:current-layer="g2"
     inkscape:export-bgcolor="#1e2030ff" />
  <defs
     id="defs2426">
    <linearGradient
       x1="112.49854"
       y1="6.1372099"
       x2="112.49853"
       y2="129.3468"
       id="path1082_2_"
       gradientUnits="userSpaceOnUse"
       gradientTransform="translate(287,-83)">
      <stop
         id="stop193"
         style="stop-color:#ffffff;stop-opacity:0"
         offset="0" />
      <stop
         id="stop195"
         style="stop-color:#ffffff;stop-opacity:0.27450982"
         offset="1" />
      <midPointStop
         offset="0"
         style="stop-color:#FFFFFF"
         id="midPointStop197" />
      <midPointStop
         offset="0.5"
         style="stop-color:#FFFFFF"
         id="midPointStop199" />
      <midPointStop
         offset="1"
         style="stop-color:#000000"
         id="midPointStop201" />
    </linearGradient>
    <linearGradient
       x1="541.33502"
       y1="104.50665"
       x2="606.91248"
       y2="303.14029"
       id="linearGradient2544"
       xlink:href="#path1082_2_"
       gradientUnits="userSpaceOnUse"
       gradientTransform="matrix(-0.3937741,0,0,0.393752,357.51969,122.00151)" />
    <linearGradient
       id="linearGradient3388">
      <stop
         id="stop3390"
         style="stop-color:#000000;stop-opacity:0"
         offset="0" />
      <stop
         id="stop3392"
         style="stop-color:#000000;stop-opacity:0.37113401"
         offset="1" />
    </linearGradient>
    <linearGradient
       x1="490.72305"
       y1="237.72447"
       x2="490.72305"
       y2="183.9644"
       id="linearGradient4416"
       xlink:href="#linearGradient3388"
       gradientUnits="userSpaceOnUse"
       gradientTransform="matrix(0.749107,0,0,0.749107,-35.459862,91.44108)" />
  </defs>
  <g
     transform="translate(-57.527313,-146.42741)"
     id="layer1"
     inkscape:label="layer1">
    <g
       transform="matrix(0.8746356,0,0,0.8746356,14.730518,23.408954)"
       id="g2424">
      <g
         id="g2"
         transform="translate(0,7.3587941)">
        <g
           id="g1"
           transform="matrix(0.58561258,0,0,0.58561258,480.27729,249.31089)">
          <g
             transform="matrix(0.6378586,0,0,0.6378586,-261.77437,766.99745)"
             id="g2809"
             style="fill:#cad3f5;fill-opacity:1">
            <path
               d="m 1607.0254,551.15899 c -27.6479,-0.0457 -50.5927,5.62392 -59.4648,8.71672 l -9.1346,49.31516 c -0.022,0.18169 45.4615,-12.129 65.4948,-11.40338 33.1696,1.1918 36.2224,12.67705 35.643,28.18009 0.5655,0.90677 -8.5578,-14.00774 -37.255,-14.50797 -36.2035,-0.62449 -87.2968,12.81854 -87.2269,67.46505 -0.976,61.46914 45.9165,79.55159 77.8534,79.88341 28.7117,-0.5228 42.1798,-10.87343 49.554,-16.41849 9.6887,-10.13024 20.7732,-20.31731 31.3444,-32.53846 -10.0028,18.17431 -18.6747,30.73981 -27.7025,40.35963 v 8.11969 l 43.6434,-7.34354 0.2985,-118.63103 c -0.4421,-16.79035 9.6313,-81.04074 -83.0477,-81.19688 z m -6.2689,103.2872 c 18.0905,0.24827 38.8367,9.1649 38.867,30.62794 0.094,19.52205 -24.4546,30.01769 -40.4193,29.8518 -15.9714,-0.16583 -37.1613,-12.55174 -37.255,-31.5832 0.306,-17.01206 19.9831,-29.33439 38.8073,-28.89654 z"
               id="path2284"
               style="fill:#cad3f5;fill-opacity:1;fill-rule:evenodd;stroke:none"
               sodipodi:nodetypes="cccccccccccccccccscc" />
            <path
               d="m 1718.8522,562.12095 -0.2962,196.45237 50.8429,-9.79567 0.086,-111.38601 c 0.011,-16.58497 23.7009,-35.96451 53.4231,-35.65569 6.3086,-11.41357 18.1665,-40.58352 21.0556,-47.21864 -66.4028,-0.15915 -67.2482,19.08591 -78.7973,28.55297 -0.1205,-18.05981 -0.041,-28.90115 -0.041,-28.90115 l -46.273,7.95182 z"
               id="path2286"
               style="fill:#cad3f5;fill-opacity:1;fill-rule:evenodd;stroke:none"
               sodipodi:nodetypes="cccccccccc" />
            <path
               d="m 2004.9857,587.91123 c -0.4909,-0.23056 -26.5167,-30.4425 -78.84,-30.68076 -49.0095,-0.81461 -103.9813,18.18609 -104.8611,100.36469 0.429,72.25284 52.807,100.48943 105.1383,101.04 56.0028,0.58178 78.2863,-35.01872 79.6229,-35.90094 -6.6823,-5.79287 -31.7106,-30.59326 -31.7106,-30.59326 0,0 -15.6325,22.25944 -45.9632,22.54241 -30.3379,0.28887 -56.7087,-23.44823 -57.0824,-56.56853 -0.3888,-33.12059 24.2421,-51.06464 57.3102,-52.51407 28.6284,-0.006 45.1448,18.48106 45.1448,18.48106 z"
               id="path2288"
               style="fill:#cad3f5;fill-opacity:1;fill-rule:evenodd;stroke:none"
               sodipodi:nodetypes="ccccccccccc" />
            <path
               d="m 2069.0715,493.36591 -48.0017,11.28398 0.3582,255.88958 47.2852,-8.53761 0.5374,-120.42214 c 0.101,-12.62711 18.2669,-32.01862 48.5987,-31.40409 29.0011,0.30139 35.4828,19.32996 35.4042,21.73211 l 0.8359,139.40788 46.6285,-8.2391 0.179,-147.82608 c 0.307,-14.22453 -31.1573,-44.26575 -81.7342,-44.47918 -24.036,0.0386 -37.3471,5.47984 -44.121,9.49287 -11.5902,8.95201 -24.8363,17.5298 -37.852,28.47862 12.0325,-15.45796 22.1342,-26.14571 32.0011,-34.09075 l -0.1194,-71.28609 z"
               id="path2290"
               style="fill:#cad3f5;fill-opacity:1;fill-rule:evenodd;stroke:none"
               sodipodi:nodetypes="cccccccccccccccc" />
          </g>
          <g
             transform="matrix(0.9443373,0,0.01336345,0.9443373,-219.9152,352.33727)"
             id="g5326"
             style="fill:#1793d1;fill-opacity:1;stroke:none">
            <path
               d="m 1458.6473,776.83392 14.6759,-3.66007 -1.7739,174.25408 -14.8939,2.53002 z"
               id="path2292"
               style="fill:#c6a0f6;fill-opacity:1;fill-rule:evenodd;stroke:none"
               sodipodi:nodetypes="ccccc" />
            <path
               d="m 1497.6731,828.84096 12.8972,-5.70614 -1.6585,124.94635 -12.4141,2.55847 z m -2.4084,-45.05598 10.4537,-8.43555 8.4495,9.55165 -10.4612,8.65886 z"
               id="path2294"
               style="fill:#c6a0f6;fill-opacity:1;fill-rule:evenodd;stroke:none"
               sodipodi:nodetypes="cccccccccc" />
            <path
               d="m 1534.6226,826.56471 14.6681,-2.98424 -0.3006,26.12094 c -0.013,1.1218 8.4434,-29.18052 47.1611,-28.50668 37.5987,0.20924 43.3382,29.31941 43.0422,35.84579 l -0.836,91.8543 -12.8586,2.78231 1.2096,-90.72844 c 0.1861,-2.64958 -5.505,-25.05528 -32.0757,-25.13768 -26.5659,-0.0772 -45.2479,19.29712 -45.3904,31.67513 l -0.9195,79.92595 -14.9094,3.88083 z"
               id="path2296"
               style="fill:#c6a0f6;fill-opacity:1;fill-rule:evenodd;stroke:none"
               sodipodi:nodetypes="ccccccccccccc" />
            <path
               d="m 1765.9674,949.55581 -14.6682,2.98395 0.3006,-26.12052 c 0.013,-1.12227 -8.4483,29.18046 -47.1611,28.50653 -37.5986,-0.20909 -43.3381,-29.31926 -43.0421,-35.84564 l 0.836,-91.8549 15.5835,-3.13756 -1.044,90.73012 c -0.028,2.4776 2.6145,25.40945 29.1851,25.49124 26.566,0.0774 45.4058,-15.99787 45.8802,-40.20518 l 0.8235,-71.58512 14.5157,-3.69102 z"
               id="path2298"
               style="fill:#c6a0f6;fill-opacity:1;fill-rule:evenodd;stroke:none"
               sodipodi:nodetypes="ccccccccccccc" />
            <path
               d="m 1796.3858,825.53426 -10.3686,8.02448 38.5903,51.45644 -42.7781,59.448 10.7657,8.07383 40.2042,-55.20757 39.8875,56.51606 10.1779,-8.02613 -42.7493,-60.42702 35.4776,-48.86619 -10.5689,-9.04494 -32.328,45.21765 z"
               id="path2300"
               style="fill:#c6a0f6;fill-opacity:1;fill-rule:evenodd;stroke:none"
               sodipodi:nodetypes="ccccccccccccc" />
          </g>
        </g>
        <path
           d="m 1146.511,652.5587 c -9.462,23.19824 -15.169,38.37261 -25.7037,60.88125 6.4591,6.84662 14.3873,14.81984 27.2627,23.82484 -13.8423,-5.69602 -23.2845,-11.41469 -30.3407,-17.34896 -13.4824,28.13303 -34.6054,68.20727 -77.4707,145.22754 33.6907,-19.45021 59.8071,-31.44148 84.1464,-36.01705 -1.0451,-4.49511 -1.6393,-9.35747 -1.5989,-14.43081 l 0.04,-1.07931 c 0.5345,-21.58475 11.7629,-38.18343 25.064,-37.05642 13.3011,1.12702 23.6399,19.54906 23.1053,41.13383 -0.1005,4.06156 -0.5587,7.96875 -1.3591,11.59262 24.075,4.7095 49.9123,16.67008 83.1471,35.85714 -6.5533,-12.06499 -12.4026,-22.94073 -17.9885,-33.29877 -8.7988,-6.81961 -17.9763,-15.69536 -36.6967,-25.30389 12.8673,3.34346 22.0802,7.20094 29.2614,11.51266 -56.7937,-105.73985 -61.3928,-119.7905 -80.8686,-165.49467 z"
           id="path2518"
           style="fill:#c6a0f6;fill-opacity:1;fill-rule:evenodd;stroke:none;stroke-width:0.669548"
           sodipodi:nodetypes="ccccccccsccccccc" />
      </g>
      <g
         id="g3"
         inkscape:label="TRADEMARK"
         style="display:none">
        <g
           id="text2634"
           style="font-style:normal;font-weight:normal;font-size:8.44138px;font-family:'DejaVu Sans Mono';fill:#c6a0f6;fill-opacity:1;stroke:none"
           transform="matrix(1.9692025,0,0,1.9692025,2.1246917,357.44767)"
           inkscape:label="text2634">
          <path
             d="m 685.46692,263.83624 v -5.32944 h -1.99082 v -0.71307 h 4.7895 v 0.71307 h -1.99906 v 5.32944 h -0.79962"
             id="path3945"
             style="fill:#c6a0f6;fill-opacity:1" />
          <path
             d="m 689.0982,263.83624 v -6.04251 h 1.20355 l 1.43026,4.2784 c 0.13189,0.39843 0.22806,0.69658 0.28852,0.89442 0.0687,-0.21983 0.17586,-0.5427 0.3215,-0.96862 l 1.44674,-4.2042 h 1.07578 v 6.04251 h -0.77077 v -5.05741 l -1.75587,5.05741 h -0.72131 l -1.74763,-5.14396 v 5.14396 h -0.77077"
             id="path3947"
             style="fill:#c6a0f6;fill-opacity:1" />
        </g>
        <g
           id="text2634-6"
           style="font-style:normal;font-weight:normal;font-size:8.44138px;font-family:'DejaVu Sans Mono';fill:#c6a0f6;fill-opacity:1;stroke:none"
           transform="matrix(1.9692025,0,0,1.9692025,255.93918,579.3535)">
          <path
             d="m 685.46692,263.83624 v -5.32944 h -1.99082 v -0.71307 h 4.7895 v 0.71307 h -1.99906 v 5.32944 h -0.79962"
             id="path3945-0"
             style="fill:#c6a0f6;fill-opacity:1" />
          <path
             d="m 689.0982,263.83624 v -6.04251 h 1.20355 l 1.43026,4.2784 c 0.13189,0.39843 0.22806,0.69658 0.28852,0.89442 0.0687,-0.21983 0.17586,-0.5427 0.3215,-0.96862 l 1.44674,-4.2042 h 1.07578 v 6.04251 h -0.77077 v -5.05741 l -1.75587,5.05741 h -0.72131 l -1.74763,-5.14396 v 5.14396 h -0.77077"
             id="path3947-0"
             style="fill:#c6a0f6;fill-opacity:1" />
        </g>
      </g>
      <g
         id="text2638"
         style="font-style:normal;font-weight:normal;font-size:8.2513px;font-family:'DejaVu Sans Mono';fill:#1793d1;fill-opacity:1;stroke:none" />
    </g>
  </g>
</svg>
