<?xml version="1.0" encoding="UTF-8" standalone="no"?>
<!-- Created with Inkscape (http://www.inkscape.org/) -->

<svg
   version="1.0"
   width="1920"
   height="1200"
   id="svg2424"
   sodipodi:docname="FondArchTest.svg"
   inkscape:version="1.3.2 (091e20e, 2023-11-25, custom)"
   inkscape:export-filename="FondArchBTW.png"
   inkscape:export-xdpi="96"
   inkscape:export-ydpi="96"
   xmlns:inkscape="http://www.inkscape.org/namespaces/inkscape"
   xmlns:sodipodi="http://sodipodi.sourceforge.net/DTD/sodipodi-0.dtd"
   xmlns:xlink="http://www.w3.org/1999/xlink"
   xmlns="http://www.w3.org/2000/svg"
   xmlns:svg="http://www.w3.org/2000/svg">
  <sodipodi:namedview
     id="namedview1"
     pagecolor="#1e2030"
     bordercolor="#000000"
     borderopacity="0.25"
     inkscape:showpageshadow="2"
     inkscape:pageopacity="0.0"
     inkscape:pagecheckerboard="0"
     inkscape:deskcolor="#d1d1d1"
     inkscape:zoom="0.52431034"
     inkscape:cx="959.35548"
     inkscape:cy="601.74285"
     inkscape:window-width="1920"
     inkscape:window-height="1009"
     inkscape:window-x="-8"
     inkscape:window-y="-8"
     inkscape:window-maximized="1"
     inkscape:current-layer="g2424"
     inkscape:export-bgcolor="#1e2030ff" />
  <defs
     id="defs2426">
    <rect
       x="1.863354"
       y="7.4534161"
       width="1211.1802"
       height="913.04351"
       id="rect1" />
    <linearGradient
       x1="112.49854"
       y1="6.1372099"
       x2="112.49853"
       y2="129.3468"
       id="path1082_2_"
       gradientUnits="userSpaceOnUse"
       gradientTransform="translate(287,-83)">
      <stop
         id="stop193"
         style="stop-color:#ffffff;stop-opacity:0"
         offset="0" />
      <stop
         id="stop195"
         style="stop-color:#ffffff;stop-opacity:0.27450982"
         offset="1" />
      <midPointStop
         offset="0"
         style="stop-color:#FFFFFF"
         id="midPointStop197" />
      <midPointStop
         offset="0.5"
         style="stop-color:#FFFFFF"
         id="midPointStop199" />
      <midPointStop
         offset="1"
         style="stop-color:#000000"
         id="midPointStop201" />
    </linearGradient>
    <linearGradient
       x1="541.33502"
       y1="104.50665"
       x2="606.91248"
       y2="303.14029"
       id="linearGradient2544"
       xlink:href="#path1082_2_"
       gradientUnits="userSpaceOnUse"
       gradientTransform="matrix(-0.3937741,0,0,0.393752,357.51969,122.00151)" />
    <linearGradient
       id="linearGradient3388">
      <stop
         id="stop3390"
         style="stop-color:#000000;stop-opacity:0"
         offset="0" />
      <stop
         id="stop3392"
         style="stop-color:#000000;stop-opacity:0.37113401"
         offset="1" />
    </linearGradient>
    <linearGradient
       x1="490.72305"
       y1="237.72447"
       x2="490.72305"
       y2="183.9644"
       id="linearGradient4416"
       xlink:href="#linearGradient3388"
       gradientUnits="userSpaceOnUse"
       gradientTransform="matrix(0.749107,0,0,0.749107,-35.459862,91.44108)" />
  </defs>
  <g
     transform="translate(-57.527313,-146.42741)"
     id="layer1"
     inkscape:label="layer1">
    <g
       transform="matrix(0.8746356,0,0,0.8746356,14.730518,23.408954)"
       id="g2424">
      <path
         id="text1"
         style="font-style:italic;font-weight:bold;font-size:13.3333px;font-family:'Ubuntu Mono';-inkscape-font-specification:'Ubuntu Mono Bold Italic';text-align:justify;white-space:pre;fill:#191b29;stroke:#191b29;stroke-width:50.9272;stroke-miterlimit:14.6;fill-opacity:1;stroke-opacity:1"
         d="M 147.2733 131.63841 L -44.326587 689.37292 L 147.2733 131.63841 z M 313.89849 144.01857 C 292.35936 146.07951 271.79982 148.82767 252.21879 152.26308 L 33.156574 789.93935 C 51.758552 794.06128 72.320328 797.49742 94.838512 800.24499 C 118.33572 802.99255 141.3424 805.05432 163.86056 806.42836 C 186.37874 808.48962 207.42862 809.86277 227.00963 810.55062 C 247.56974 811.24075 265.19184 811.58006 279.87763 811.58006 C 350.36933 811.58006 412.54051 806.42988 466.38834 796.12497 C 521.21524 785.13304 566.74041 770.36063 602.9653 751.81187 C 640.16928 732.57609 668.07229 709.56243 686.67427 682.76972 C 705.27626 655.977 714.57875 626.09201 714.57875 593.11631 C 714.57875 562.88849 705.27624 537.81359 686.67427 517.89079 C 668.07229 497.28097 638.21249 480.10701 597.09232 466.3671 C 659.75164 449.19228 702.82973 426.52116 726.32695 398.3544 C 750.80324 369.50064 763.0409 339.61561 763.0409 308.70099 C 763.0409 281.90819 756.18772 259.23708 742.481 240.68829 C 728.77427 221.45249 709.68345 205.6527 685.20714 193.28686 C 660.73086 180.92094 631.35915 171.99032 597.09232 166.49445 C 562.82553 160.9988 524.64161 158.24994 482.54238 158.24994 C 467.85661 158.24994 450.72254 158.59153 431.14151 159.27939 C 411.5605 159.96645 391.00093 161.3404 369.46181 163.40164 C 348.90173 164.7758 336.41667 141.271 313.89849 144.01857 z M 857.83261 165.46277 L 822.58578 270.57127 L 1061.9645 270.57127 L 879.86187 803.33556 L 1060.4951 803.33556 L 1242.6 270.57127 L 1529.1792 270.57127 L 1564.426 165.46277 L 857.83261 165.46277 z M 1595.0593 165.46277 C 1560.7925 276.0687 1528.4831 384.26972 1498.1327 490.0667 C 1468.7611 595.17698 1444.2836 699.59944 1424.7026 803.33556 L 1592.1228 803.33556 L 1810.9394 506.55571 C 1811.9185 531.28745 1813.8771 558.07916 1816.8146 586.93294 C 1819.7521 615.09968 1822.6887 642.92324 1825.6263 670.40297 C 1828.5638 697.19578 1831.5006 722.61544 1834.438 746.66017 C 1838.3537 770.01807 1841.2914 788.90862 1843.2497 803.33556 L 1998.9172 803.33556 C 2020.4565 759.36793 2042.4848 711.27946 2065.0028 659.06789 C 2087.5211 606.85631 2110.0394 552.92612 2132.5577 497.27953 C 2155.0756 440.94604 2177.104 384.61406 2198.6432 328.28058 C 2220.1823 271.94714 2241.2321 217.67423 2261.7923 165.46277 L 2097.3131 165.46277 L 1934.301 661.12901 C 1929.4058 619.90937 1924.5101 575.94148 1919.6141 529.22587 C 1914.7194 482.51026 1911.2934 436.48101 1909.3352 391.13934 L 1781.5677 391.13934 L 1580.3724 666.28071 L 1761.0078 165.46277 L 1595.0593 165.46277 z M 469.32483 265.41957 C 507.50783 265.41957 537.36985 269.88488 558.90901 278.81578 C 580.44819 287.74666 591.21711 303.2039 591.21711 325.18777 C 591.21711 343.0496 585.34232 358.16445 573.5937 370.53031 C 561.8451 382.89619 546.67002 392.85616 528.06804 400.41329 C 509.46605 407.97012 488.41621 413.46688 464.91897 416.9023 C 441.42173 419.64987 417.4345 421.02456 392.9582 421.02456 L 337.15371 421.02456 L 387.08522 268.51238 C 397.85479 267.13898 410.09244 266.44902 423.79917 266.44902 C 438.48493 265.75884 453.65999 265.41957 469.32483 265.41957 z M 2337.1339 281.15157 L 2107.2123 839.05802 C 2126.0514 800.60237 2145.3182 758.5421 2165.0132 712.87601 C 2184.7085 667.20991 2204.405 620.04114 2224.1003 571.37065 C 2243.7953 522.09938 2263.0622 472.82813 2281.9011 423.55686 C 2300.74 374.28564 2319.1513 326.81758 2337.1339 281.15157 z M 300.43976 523.04249 L 395.89693 523.04249 C 437.99612 523.04249 472.26205 527.85026 498.69643 537.46814 C 525.13082 546.39901 538.34911 564.60481 538.34911 592.08463 C 538.34911 614.0684 531.49592 632.27429 517.78921 646.70113 C 504.08248 661.12807 487.43871 672.46252 467.8577 680.70636 C 448.27666 688.95011 427.2268 694.78941 404.70863 698.22482 C 382.19043 701.66024 362.11898 703.37875 344.49605 703.37875 C 320.01977 703.37875 298.96991 703.03502 281.34699 702.34707 C 264.7031 701.66004 250.99681 700.63066 240.22719 699.2565 L 300.43976 523.04249 z M 146.80882 813.49827 L -20.769902 1301.313 L 146.80882 813.49827 z M 488.85305 841.94985 C 474.16727 841.94985 457.03321 842.29367 437.45218 842.98153 C 417.87116 843.6686 397.31159 845.04254 375.77247 847.10379 C 355.21239 848.47794 333.67222 850.53737 311.15404 853.28493 C 289.61491 855.34586 270.92 852.76816 251.33896 856.20356 L 39.467238 1473.6415 C 58.069216 1477.7634 64.319229 1503.0434 86.837412 1505.791 C 110.33465 1508.5384 147.65306 1488.7567 170.17122 1490.1305 C 192.6894 1492.1918 213.73928 1493.5626 233.32029 1494.2505 C 253.88038 1494.9406 271.50251 1495.2822 286.18829 1495.2822 C 356.67998 1495.2822 418.85116 1490.1298 472.699 1479.8249 C 527.52588 1468.8329 573.05106 1454.0627 609.27597 1435.514 C 646.47993 1416.2782 674.38295 1393.2645 692.98494 1366.4719 C 711.58693 1339.6791 720.88718 1309.7941 720.88718 1276.8185 C 720.88718 1246.5906 711.58691 1221.5157 692.98494 1201.5929 C 674.38295 1180.9833 644.52313 1163.807 603.40299 1150.067 C 666.06229 1132.8922 709.14038 1110.2233 732.63761 1082.0565 C 757.11391 1053.2029 769.35156 1023.3178 769.35156 992.40314 C 769.35156 965.61032 762.49839 942.93924 748.79166 924.39044 C 735.08495 905.15464 715.99188 889.3526 691.51557 876.98677 C 667.03929 864.62084 637.66979 855.69024 603.40299 850.19436 C 569.13619 844.69872 530.95226 841.94985 488.85305 841.94985 z M 864.14327 849.16268 L 828.89645 954.27342 L 1068.2752 954.27342 L 886.1703 1487.0377 L 1066.8058 1487.0377 L 1248.9107 954.27342 L 1535.4898 954.27342 L 1570.7366 849.16268 L 864.14327 849.16268 z M 1601.3699 849.16268 C 1567.1032 959.76859 1534.7938 1067.9718 1504.4434 1173.7688 C 1475.0716 1278.879 1450.5942 1383.3014 1431.0133 1487.0377 L 1598.4312 1487.0377 L 1817.25 1190.2556 C 1818.2293 1214.9874 1820.1877 1241.7814 1823.1252 1270.6351 C 1826.0627 1298.802 1828.9994 1326.6253 1831.9369 1354.1051 C 1834.8744 1380.8979 1837.809 1406.3153 1840.7464 1430.3601 C 1844.6621 1453.7181 1847.5997 1472.6106 1849.5581 1487.0377 L 2005.2279 1487.0377 C 2026.767 1443.0699 2048.7952 1394.9816 2071.3134 1342.77 C 2093.8315 1290.5585 2116.3503 1236.6284 2138.8683 1180.9817 C 2161.3864 1124.6482 2183.4147 1068.3139 2204.9539 1011.9805 C 2226.493 955.64705 2247.543 901.37412 2268.103 849.16268 L 2103.6215 849.16268 L 1940.6094 1344.8289 C 1935.7143 1303.6094 1930.8207 1259.6436 1925.9247 1212.928 C 1921.03 1166.2124 1917.6042 1120.1832 1915.6459 1074.8415 L 1787.8784 1074.8415 L 1586.683 1349.9829 L 1767.3185 849.16268 L 1601.3699 849.16268 z M 475.63549 949.12172 C 513.8185 949.12172 543.6805 953.58702 565.21967 962.51792 C 586.75883 971.4488 597.52777 986.90614 597.52777 1008.8899 C 597.52777 1026.7519 591.653 1041.8665 579.90436 1054.2325 C 568.15577 1066.5983 552.9807 1076.5583 534.3787 1084.1154 C 515.77673 1091.6723 494.72688 1097.1691 471.22964 1100.6044 C 447.7324 1103.352 423.74514 1104.7245 399.26887 1104.7245 L 343.46438 1104.7245 L 393.39588 952.21229 C 404.16545 950.83889 416.40311 950.15116 430.10983 950.15116 C 444.7956 949.461 459.97068 949.12172 475.63549 949.12172 z M 2312.6952 1038.5675 L 2111.598 1526.5318 C 2128.0753 1492.8972 2144.9267 1456.1101 2162.1526 1416.1689 C 2179.3789 1376.2277 2196.6042 1334.972 2213.8304 1292.4031 C 2231.0564 1249.3087 2247.9078 1206.2138 2264.3849 1163.1193 C 2280.8621 1120.025 2296.9669 1078.5086 2312.6952 1038.5675 z M 306.74819 1206.7446 L 402.20759 1206.7446 C 444.30678 1206.7446 478.5727 1211.5524 505.0071 1221.1703 C 531.44146 1230.1013 544.65977 1248.3068 544.65977 1275.7868 C 544.65977 1297.7706 537.80436 1315.9763 524.09764 1330.4033 C 510.39092 1344.8301 493.74715 1356.1648 474.16613 1364.4085 C 454.58509 1372.6522 433.53524 1378.4916 411.01706 1381.927 C 388.49887 1385.3624 368.42963 1387.0809 350.80672 1387.0809 C 326.33043 1387.0809 305.28055 1386.7371 287.65765 1386.0492 C 271.01376 1385.3621 257.30748 1384.3327 246.53785 1382.9586 L 306.74819 1206.7446 z " />
      <g
         id="g2"
         transform="translate(0,7.3587941)"
         inkscape:label="g2"
         style="stroke:#363a4f;stroke-opacity:1;stroke-width:17.14999938;stroke-dasharray:none;paint-order:markers stroke fill;stroke-linecap:butt;stroke-linejoin:round">
        <g
           id="g1"
           transform="matrix(0.58561258,0,0,0.58561258,480.27729,249.31089)"
           style="stroke:#363a4f;stroke-opacity:1;stroke-width:29.28557201;stroke-dasharray:none;paint-order:markers stroke fill;stroke-linecap:butt;stroke-linejoin:round">
          <g
             transform="matrix(0.6378586,0,0,0.6378586,-261.77437,766.99745)"
             id="g2809"
             style="fill:#cad3f5;fill-opacity:1;stroke:#363a4f;stroke-opacity:1;stroke-width:45.91232604;stroke-dasharray:none;paint-order:markers stroke fill;stroke-linecap:butt;stroke-linejoin:round">
            <path
               d="m 1607.0254,551.15899 c -27.6479,-0.0457 -50.5927,5.62392 -59.4648,8.71672 l -9.1346,49.31516 c -0.022,0.18169 45.4615,-12.129 65.4948,-11.40338 33.1696,1.1918 36.2224,12.67705 35.643,28.18009 0.5655,0.90677 -8.5578,-14.00774 -37.255,-14.50797 -36.2035,-0.62449 -87.2968,12.81854 -87.2269,67.46505 -0.976,61.46914 45.9165,79.55159 77.8534,79.88341 28.7117,-0.5228 42.1798,-10.87343 49.554,-16.41849 9.6887,-10.13024 20.7732,-20.31731 31.3444,-32.53846 -10.0028,18.17431 -18.6747,30.73981 -27.7025,40.35963 v 8.11969 l 43.6434,-7.34354 0.2985,-118.63103 c -0.4421,-16.79035 9.6313,-81.04074 -83.0477,-81.19688 z m -6.2689,103.2872 c 18.0905,0.24827 38.8367,9.1649 38.867,30.62794 0.094,19.52205 -24.4546,30.01769 -40.4193,29.8518 -15.9714,-0.16583 -37.1613,-12.55174 -37.255,-31.5832 0.306,-17.01206 19.9831,-29.33439 38.8073,-28.89654 z"
               id="path2284"
               style="fill:#cad3f5;fill-opacity:1;fill-rule:evenodd;stroke:#363a4f;stroke-opacity:1;stroke-width:45.91232604;stroke-dasharray:none;paint-order:markers stroke fill;stroke-linecap:butt;stroke-linejoin:round"
               sodipodi:nodetypes="cccccccccccccccccscc" />
            <path
               d="m 1718.8522,562.12095 -0.2962,196.45237 50.8429,-9.79567 0.086,-111.38601 c 0.011,-16.58497 23.7009,-35.96451 53.4231,-35.65569 6.3086,-11.41357 18.1665,-40.58352 21.0556,-47.21864 -66.4028,-0.15915 -67.2482,19.08591 -78.7973,28.55297 -0.1205,-18.05981 -0.041,-28.90115 -0.041,-28.90115 l -46.273,7.95182 z"
               id="path2286"
               style="fill:#cad3f5;fill-opacity:1;fill-rule:evenodd;stroke:#363a4f;stroke-opacity:1;stroke-width:45.91232604;stroke-dasharray:none;paint-order:markers stroke fill;stroke-linecap:butt;stroke-linejoin:round"
               sodipodi:nodetypes="cccccccccc" />
            <path
               d="m 2004.9857,587.91123 c -0.4909,-0.23056 -26.5167,-30.4425 -78.84,-30.68076 -49.0095,-0.81461 -103.9813,18.18609 -104.8611,100.36469 0.429,72.25284 52.807,100.48943 105.1383,101.04 56.0028,0.58178 78.2863,-35.01872 79.6229,-35.90094 -6.6823,-5.79287 -31.7106,-30.59326 -31.7106,-30.59326 0,0 -15.6325,22.25944 -45.9632,22.54241 -30.3379,0.28887 -56.7087,-23.44823 -57.0824,-56.56853 -0.3888,-33.12059 24.2421,-51.06464 57.3102,-52.51407 28.6284,-0.006 45.1448,18.48106 45.1448,18.48106 z"
               id="path2288"
               style="fill:#cad3f5;fill-opacity:1;fill-rule:evenodd;stroke:#363a4f;stroke-opacity:1;stroke-width:45.91232604;stroke-dasharray:none;paint-order:markers stroke fill;stroke-linecap:butt;stroke-linejoin:round"
               sodipodi:nodetypes="ccccccccccc" />
            <path
               d="m 2069.0715,493.36591 -48.0017,11.28398 0.3582,255.88958 47.2852,-8.53761 0.5374,-120.42214 c 0.101,-12.62711 18.2669,-32.01862 48.5987,-31.40409 29.0011,0.30139 35.4828,19.32996 35.4042,21.73211 l 0.8359,139.40788 46.6285,-8.2391 0.179,-147.82608 c 0.307,-14.22453 -31.1573,-44.26575 -81.7342,-44.47918 -24.036,0.0386 -37.3471,5.47984 -44.121,9.49287 -11.5902,8.95201 -24.8363,17.5298 -37.852,28.47862 12.0325,-15.45796 22.1342,-26.14571 32.0011,-34.09075 l -0.1194,-71.28609 z"
               id="path2290"
               style="fill:#cad3f5;fill-opacity:1;fill-rule:evenodd;stroke:#363a4f;stroke-opacity:1;stroke-width:45.91232604;stroke-dasharray:none;paint-order:markers stroke fill;stroke-linecap:butt;stroke-linejoin:round"
               sodipodi:nodetypes="cccccccccccccccc" />
          </g>
          <g
             transform="matrix(0.9443373,0,0.01336345,0.9443373,-219.9152,352.33727)"
             id="g5326"
             style="fill:#1793d1;fill-opacity:1;stroke:#363a4f;stroke-opacity:1;stroke-width:31.01177091;stroke-dasharray:none;paint-order:markers stroke fill;stroke-linecap:butt;stroke-linejoin:round">
            <path
               d="m 1458.6473,776.83392 14.6759,-3.66007 -1.7739,174.25408 -14.8939,2.53002 z"
               id="path2292"
               style="fill:#c6a0f6;fill-opacity:1;fill-rule:evenodd;stroke:#363a4f;stroke-opacity:1;stroke-width:31.01177091;stroke-dasharray:none;paint-order:markers stroke fill;stroke-linecap:butt;stroke-linejoin:round"
               sodipodi:nodetypes="ccccc" />
            <path
               d="m 1497.6731,828.84096 12.8972,-5.70614 -1.6585,124.94635 -12.4141,2.55847 z m -2.4084,-45.05598 10.4537,-8.43555 8.4495,9.55165 -10.4612,8.65886 z"
               id="path2294"
               style="fill:#c6a0f6;fill-opacity:1;fill-rule:evenodd;stroke:#363a4f;stroke-opacity:1;stroke-width:31.01177091;stroke-dasharray:none;paint-order:markers stroke fill;stroke-linecap:butt;stroke-linejoin:round"
               sodipodi:nodetypes="cccccccccc" />
            <path
               d="m 1534.6226,826.56471 14.6681,-2.98424 -0.3006,26.12094 c -0.013,1.1218 8.4434,-29.18052 47.1611,-28.50668 37.5987,0.20924 43.3382,29.31941 43.0422,35.84579 l -0.836,91.8543 -12.8586,2.78231 1.2096,-90.72844 c 0.1861,-2.64958 -5.505,-25.05528 -32.0757,-25.13768 -26.5659,-0.0772 -45.2479,19.29712 -45.3904,31.67513 l -0.9195,79.92595 -14.9094,3.88083 z"
               id="path2296"
               style="fill:#c6a0f6;fill-opacity:1;fill-rule:evenodd;stroke:#363a4f;stroke-opacity:1;stroke-width:31.01177091;stroke-dasharray:none;paint-order:markers stroke fill;stroke-linecap:butt;stroke-linejoin:round"
               sodipodi:nodetypes="ccccccccccccc" />
            <path
               d="m 1765.9674,949.55581 -14.6682,2.98395 0.3006,-26.12052 c 0.013,-1.12227 -8.4483,29.18046 -47.1611,28.50653 -37.5986,-0.20909 -43.3381,-29.31926 -43.0421,-35.84564 l 0.836,-91.8549 15.5835,-3.13756 -1.044,90.73012 c -0.028,2.4776 2.6145,25.40945 29.1851,25.49124 26.566,0.0774 45.4058,-15.99787 45.8802,-40.20518 l 0.8235,-71.58512 14.5157,-3.69102 z"
               id="path2298"
               style="fill:#c6a0f6;fill-opacity:1;fill-rule:evenodd;stroke:#363a4f;stroke-opacity:1;stroke-width:31.01177091;stroke-dasharray:none;paint-order:markers stroke fill;stroke-linecap:butt;stroke-linejoin:round"
               sodipodi:nodetypes="ccccccccccccc" />
            <path
               d="m 1796.3858,825.53426 -10.3686,8.02448 38.5903,51.45644 -42.7781,59.448 10.7657,8.07383 40.2042,-55.20757 39.8875,56.51606 10.1779,-8.02613 -42.7493,-60.42702 35.4776,-48.86619 -10.5689,-9.04494 -32.328,45.21765 z"
               id="path2300"
               style="fill:#c6a0f6;fill-opacity:1;fill-rule:evenodd;stroke:#363a4f;stroke-opacity:1;stroke-width:31.01177091;stroke-dasharray:none;paint-order:markers stroke fill;stroke-linecap:butt;stroke-linejoin:round"
               sodipodi:nodetypes="ccccccccccccc" />
          </g>
        </g>
        <path
           d="m 1146.511,652.5587 c -9.462,23.19824 -15.169,38.37261 -25.7037,60.88125 6.4591,6.84662 14.3873,14.81984 27.2627,23.82484 -13.8423,-5.69602 -23.2845,-11.41469 -30.3407,-17.34896 -13.4824,28.13303 -34.6054,68.20727 -77.4707,145.22754 33.6907,-19.45021 59.8071,-31.44148 84.1464,-36.01705 -1.0451,-4.49511 -1.6393,-9.35747 -1.5989,-14.43081 l 0.04,-1.07931 c 0.5345,-21.58475 11.7629,-38.18343 25.064,-37.05642 13.3011,1.12702 23.6399,19.54906 23.1053,41.13383 -0.1005,4.06156 -0.5587,7.96875 -1.3591,11.59262 24.075,4.7095 49.9123,16.67008 83.1471,35.85714 -6.5533,-12.06499 -12.4026,-22.94073 -17.9885,-33.29877 -8.7988,-6.81961 -17.9763,-15.69536 -36.6967,-25.30389 12.8673,3.34346 22.0802,7.20094 29.2614,11.51266 -56.7937,-105.73985 -61.3928,-119.7905 -80.8686,-165.49467 z"
           id="path2518"
           style="fill:#c6a0f6;fill-opacity:1;fill-rule:evenodd;stroke:#363a4f;stroke-width:17.14999938;stroke-opacity:1;stroke-dasharray:none;paint-order:markers stroke fill;stroke-linecap:butt;stroke-linejoin:round"
           sodipodi:nodetypes="ccccccccsccccccc" />
      </g>
      <g
         id="g3"
         inkscape:label="TRADEMARK"
         style="display:none">
        <g
           id="text2634"
           style="font-style:normal;font-weight:normal;font-size:8.44138px;font-family:'DejaVu Sans Mono';fill:#c6a0f6;fill-opacity:1;stroke:none"
           transform="matrix(1.9692025,0,0,1.9692025,2.1246917,357.44767)"
           inkscape:label="text2634">
          <path
             d="m 685.46692,263.83624 v -5.32944 h -1.99082 v -0.71307 h 4.7895 v 0.71307 h -1.99906 v 5.32944 h -0.79962"
             id="path3945"
             style="fill:#c6a0f6;fill-opacity:1" />
          <path
             d="m 689.0982,263.83624 v -6.04251 h 1.20355 l 1.43026,4.2784 c 0.13189,0.39843 0.22806,0.69658 0.28852,0.89442 0.0687,-0.21983 0.17586,-0.5427 0.3215,-0.96862 l 1.44674,-4.2042 h 1.07578 v 6.04251 h -0.77077 v -5.05741 l -1.75587,5.05741 h -0.72131 l -1.74763,-5.14396 v 5.14396 h -0.77077"
             id="path3947"
             style="fill:#c6a0f6;fill-opacity:1" />
        </g>
        <g
           id="text2634-6"
           style="font-style:normal;font-weight:normal;font-size:8.44138px;font-family:'DejaVu Sans Mono';fill:#c6a0f6;fill-opacity:1;stroke:none"
           transform="matrix(1.9692025,0,0,1.9692025,255.93918,579.3535)">
          <path
             d="m 685.46692,263.83624 v -5.32944 h -1.99082 v -0.71307 h 4.7895 v 0.71307 h -1.99906 v 5.32944 h -0.79962"
             id="path3945-0"
             style="fill:#c6a0f6;fill-opacity:1" />
          <path
             d="m 689.0982,263.83624 v -6.04251 h 1.20355 l 1.43026,4.2784 c 0.13189,0.39843 0.22806,0.69658 0.28852,0.89442 0.0687,-0.21983 0.17586,-0.5427 0.3215,-0.96862 l 1.44674,-4.2042 h 1.07578 v 6.04251 h -0.77077 v -5.05741 l -1.75587,5.05741 h -0.72131 l -1.74763,-5.14396 v 5.14396 h -0.77077"
             id="path3947-0"
             style="fill:#c6a0f6;fill-opacity:1" />
        </g>
      </g>
    </g>
  </g>
</svg>
